HIERARCHY
ROOT Hips
{
    OFFSET 0.000000 0.000000 0.000000
    CHANNELS 6 Xposition Yposition Zposition Zrotation Xrotation Yrotation
    JOINT Spine
    {
        OFFSET -0.000000 7.236184 0.000000
        CHANNELS 3 Zrotation Xrotation Yrotation
        JOINT Spine1
        {
            OFFSET -0.000000 20.420147 0.000000
            CHANNELS 3 Zrotation Xrotation Yrotation
            JOINT Neck
            {
                OFFSET -0.000000 20.336288 1.848754
                CHANNELS 3 Zrotation Xrotation Yrotation
                JOINT Head
                {
                    OFFSET -0.000000 12.354461 -1.764923
                    CHANNELS 3 Zrotation Xrotation Yrotation
                    End Site
                    {
                        OFFSET -0.000000 22.061537 0.000000
                    }
                }
            }
            JOINT LeftShoulder
            {
                OFFSET 3.573296 18.396038 -0.314103
                CHANNELS 3 Zrotation Xrotation Yrotation
                JOINT LeftArm
                {
                    OFFSET 10.880760 0.000000 0.000000
                    CHANNELS 3 Zrotation Xrotation Yrotation
                    JOINT LeftForeArm
                    {
                        OFFSET 27.185530 0.000000 0.000000
                        CHANNELS 3 Zrotation Xrotation Yrotation
                        JOINT LeftHand
                        {
                            OFFSET 27.825975 0.000000 0.000000
                            CHANNELS 3 Zrotation Xrotation Yrotation
                            End Site
                            {
                                OFFSET 13.236923 0.000000 0.000000
                            }
                        }
                    }
                }
            }
            JOINT RightShoulder
            {
                OFFSET -3.474926 18.396038 -0.314103
                CHANNELS 3 Zrotation Xrotation Yrotation
                JOINT RightArm
                {
                    OFFSET -10.880760 0.000000 0.000000
                    CHANNELS 3 Zrotation Xrotation Yrotation
                    JOINT RightForeArm
                    {
                        OFFSET -27.185530 0.000000 0.000000
                        CHANNELS 3 Zrotation Xrotation Yrotation
                        JOINT RightHand
                        {
                            OFFSET -27.825975 0.000000 0.000000
                            CHANNELS 3 Zrotation Xrotation Yrotation
                            End Site
                            {
                                OFFSET -13.236923 0.000000 0.000000
                            }
                        }
                    }
                }
            }
        }
    }
    JOINT LeftUpLeg
    {
        OFFSET 8.824615 0.000000 0.000000
        CHANNELS 3 Zrotation Xrotation Yrotation
        JOINT LeftLeg
        {
            OFFSET -0.000000 -35.111282 0.000000
            CHANNELS 3 Zrotation Xrotation Yrotation
            JOINT LeftFoot
            {
                OFFSET -0.000000 -42.324711 0.000000
                CHANNELS 3 Zrotation Xrotation Yrotation
                JOINT LeftToeBase
                {
                    OFFSET -0.000000 -5.735999 13.236923
                    CHANNELS 3 Zrotation Xrotation Yrotation
                    End Site
                    {
                        OFFSET -0.000000 0.000000 3.529846
                    }
                }
            }
        }
    }
    JOINT RightUpLeg
    {
        OFFSET -8.824615 0.000000 0.000000
        CHANNELS 3 Zrotation Xrotation Yrotation
        JOINT RightLeg
        {
            OFFSET -0.000000 -35.111282 0.000000
            CHANNELS 3 Zrotation Xrotation Yrotation
            JOINT RightFoot
            {
                OFFSET -0.000000 -42.324711 0.000000
                CHANNELS 3 Zrotation Xrotation Yrotation
                JOINT RightToeBase
                {
                    OFFSET -0.000000 -5.735999 13.236923
                    CHANNELS 3 Zrotation Xrotation Yrotation
                    End Site
                    {
                        OFFSET -0.000000 0.000000 3.529846
                    }
                }
            }
        }
    }
}
MOTION
Frames:    9
Frame Time:    0.008333
-8.056433    81.222763    102.108192    -0.172968    -3.455137    -175.987015    -2.196481    -10.216228    0.244333    -1.159286    8.121163    0.522966    2.927288    4.866180    -4.025265    16.128464    -14.350590    -0.216149    0.301127    17.837278    -8.017942    -24.304279    49.223797    -58.368168    6.726851    1.428996    -25.429996    15.168662    2.729179    -1.641588    7.720120    16.889313    -2.495003    6.830725    51.947098    69.014984    -5.605795    -12.989533    37.902157    -3.751035    -11.103567    -0.061632    -1.230857    -9.036371    -4.701378    -0.440261    24.566294    4.533093    -2.990047    -18.075363    -8.838025    -0.294665    2.963522    0.324933    -0.283454    -4.185735    1.473160    4.096957    17.943937    0.208140    -5.973757    -13.671572    -12.309163    -0.854070    -0.940449    0.924942    
-8.060861    81.259918    102.154312    -0.209101    -3.595127    -175.921021    -2.225341    -10.229923    0.246340    -1.116810    8.026112    0.523905    2.880598    4.827265    -4.015362    16.085627    -14.334732    -0.215574    0.392880    17.694893    -8.009366    -23.815434    49.465019    -58.850208    7.330162    1.114942    -27.049477    15.117395    2.678017    -1.520509    7.499179    16.728453    -2.413499    6.957132    51.822651    68.637367    -6.143869    -13.104524    39.773926    -3.709063    -10.920164    -0.266417    -1.242324    -8.975021    -4.775910    -0.494544    24.142792    4.502359    -2.946027    -17.994013    -8.815813    -0.336292    3.002085    0.370811    -0.335974    -4.220414    1.471835    4.078526    17.706512    0.145380    -5.912279    -13.628850    -12.225997    -0.820155    -0.959909    0.888238    
-8.065972    81.293159    102.199936    -0.250668    -3.733658    -175.850510    -2.261647    -10.244237    0.246087    -1.072501    7.940161    0.523369    2.837888    4.781978    -4.004268    16.044136    -14.327879    -0.212703    0.478573    17.552645    -7.999278    -23.417253    49.636017    -59.239044    7.861508    0.762803    -28.598825    15.001075    2.591878    -1.345909    7.293253    16.577656    -2.351362    7.350329    51.627533    68.049461    -6.599001    -13.201228    41.554668    -3.539924    -10.734127    -0.495729    -1.266864    -8.916030    -4.888178    -0.552010    23.728615    4.501839    -2.901543    -17.913885    -8.790141    -0.379254    3.031987    0.418161    -0.391827    -4.263634    1.500700    4.069381    17.488213    0.037330    -5.852543    -13.583648    -12.142061    -0.784405    -0.982526    0.849547    
-8.072006    81.323090    102.245476    -0.295314    -3.869123    -175.774338    -2.301975    -10.256834    0.243958    -1.026221    7.863521    0.521187    2.798509    4.730069    -3.992218    16.003296    -14.330986    -0.207813    0.557824    17.410450    -7.989028    -23.093004    49.748520    -59.554111    8.327151    0.372161    -30.078947    14.821781    2.467928    -1.115482    7.101790    16.435478    -2.306218    7.971024    51.361687    67.285431    -6.992915    -13.257560    43.252728    -3.263964    -10.520144    -0.751579    -1.301346    -8.858274    -5.032118    -0.610556    23.323612    4.522798    -2.857068    -17.834528    -8.758851    -0.421577    3.053589    0.464809    -0.449788    -4.313050    1.559012    4.070149    17.287128    -0.111736    -5.793469    -13.536658    -12.061076    -0.749690    -1.007599    0.811978    
-8.079006    81.349564    102.290466    -0.340240    -3.998490    -175.692947    -2.342872    -10.266519    0.239980    -0.978729    7.797738    0.517143    2.762435    4.673525    -3.979590    15.963936    -14.345384    -0.200819    0.628420    17.270851    -7.979948    -22.838240    49.809254    -59.802837    8.721996    -0.049730    -31.455988    14.585232    2.303889    -0.837145    6.928353    16.304569    -2.276817    8.767394    51.029736    66.395691    -7.340600    -13.255795    44.833035    -2.910013    -10.261490    -1.026085    -1.342273    -8.803833    -5.197494    -0.667130    22.936998    4.557017    -2.813670    -17.756985    -8.722731    -0.460711    3.067450    0.507944    -0.507905    -4.367712    1.640605    4.080177    17.107557    -0.291595    -5.734570    -13.489731    -11.986827    -0.719052    -1.035122    0.778824    
-8.086896    81.372803    102.335098    -0.382695    -4.121545    -175.606018    -2.381346    -10.273209    0.233878    -0.929879    7.742676    0.510942    2.729187    4.612784    -3.966503    15.925545    -14.370744    -0.192010    0.688904    17.135811    -7.972552    -22.645086    49.824806    -59.996078    9.047087    -0.499120    -32.714607    14.298738    2.096007    -0.524716    6.773938    16.185650    -2.261005    9.687174    50.637871    65.427170    -7.663642    -13.188285    46.279156    -2.508211    -9.946607    -1.307406    -1.385428    -8.755928    -5.374350    -0.720375    22.573868    4.595342    -2.771729    -17.681391    -8.682616    -0.495270    3.073799    0.546039    -0.564687    -4.429110    1.734662    4.097885    16.952913    -0.487654    -5.675445    -13.444295    -11.922281    -0.694274    -1.064498    0.752017    
-8.095600    81.393181    102.379646    -0.420226    -4.238738    -175.513077    -2.414723    -10.277162    0.225627    -0.879432    7.697831    0.502001    2.697778    4.548341    -3.953096    15.888222    -14.406021    -0.181501    0.737773    17.005835    -7.967240    -22.510248    49.800823    -60.140022    9.304625    -0.971680    -33.845097    13.972322    1.841551    -0.197754    6.639020    16.078136    -2.256364    10.681220    50.195396    64.421768    -7.982163    -13.056502    47.579082    -2.088125    -9.571869    -1.579023    -1.426777    -8.717864    -5.553152    -0.769713    22.238131    4.629879    -2.731741    -17.607674    -8.640550    -0.524573    3.073957    0.578346    -0.618790    -4.499843    1.825676    4.120087    16.827164    -0.683191    -5.614627    -13.401555    -11.867168    -0.676243    -1.096361    0.732519    
-8.105085    81.410995    102.424255    -0.451335    -4.350970    -175.414978    -2.441310    -10.279688    0.215155    -0.827491    7.662756    0.490246    2.667714    4.480615    -3.939270    15.851360    -14.449411    -0.169565    0.773723    16.882828    -7.963370    -22.431822    49.741364    -60.240139    9.495787    -1.458969    -34.834766    13.622376    1.541378    0.118883    6.523413    15.982400    -2.260242    11.700952    49.715866    63.421600    -8.308101    -12.869628    48.716457    -1.682275    -9.144152    -1.820917    -1.463624    -8.694080    -5.722724    -0.813948    21.935120    4.652313    -2.694050    -17.536079    -8.598580    -0.548030    3.069096    0.604212    -0.669784    -4.583550    1.897186    4.143278    16.735739    -0.860852    -5.550607    -13.363089    -11.819844    -0.665454    -1.131517    0.720868    
-8.115311    81.426895    102.468895    -0.475803    -4.458105    -175.313080    -2.460919    -10.280839    0.202889    -0.773540    7.636918    0.475936    2.638060    4.409916    -3.924956    15.814832    -14.498408    -0.156406    0.795977    16.767677    -7.960407    -22.409149    49.649437    -60.300354    9.624043    -1.952406    -35.680389    13.269074    1.199345    0.401557    6.425992    15.897547    -2.269719    12.708733    49.213520    62.456867    -8.647223    -12.642458    49.686035    -1.321011    -8.677119    -2.016513    -1.494499    -8.686002    -5.872975    -0.852313    21.667336    4.655989    -2.659098    -17.466936    -8.558963    -0.565372    3.060845    0.623341    -0.718073    -4.681693    1.937394    4.164642    16.681780    -1.008556    -5.481019    -13.329473    -11.777279    -0.662264    -1.170655    0.717453    
